<?xml version="1.0" encoding="UTF-8"?>
<svg xmlns="http://www.w3.org/2000/svg" xmlns:xlink="http://www.w3.org/1999/xlink" width="38pt" height="25pt" viewBox="0 0 38 25" version="1.1">
<g id="surface0">
<rect x="0" y="0" width="38" height="25" style="fill:rgb(100%,100%,100%);fill-opacity:1;stroke:none;"/>
<path style="fill-rule:evenodd;fill:rgb(100%,100%,100%);fill-opacity:1;stroke-width:0.1;stroke-linecap:butt;stroke-linejoin:miter;stroke:rgb(0%,0%,0%);stroke-opacity:1;stroke-miterlimit:10;" d="M 11.2 7.8 L 11.6 8.4 L 10.8 8.4 L 11.2 7.8 Z M 11.2 7.8 " transform="matrix(20,0,0,20,-211,-147)"/>
<path style="fill:none;stroke-width:0.1;stroke-linecap:butt;stroke-linejoin:miter;stroke:rgb(0%,0%,0%);stroke-opacity:1;stroke-miterlimit:10;" d="M 11.6 7.8 L 12.4 7.8 " transform="matrix(20,0,0,20,-211,-147)"/>
<path style="fill-rule:evenodd;fill:rgb(100%,100%,100%);fill-opacity:1;stroke-width:0.1;stroke-linecap:butt;stroke-linejoin:miter;stroke:rgb(0%,0%,0%);stroke-opacity:1;stroke-miterlimit:10;" d="M 11.6 7.8 C 11.6 8.020898 11.420898 8.2 11.2 8.2 C 10.979102 8.2 10.8 8.020898 10.8 7.8 C 10.8 7.579102 10.979102 7.4 11.2 7.4 C 11.420898 7.4 11.6 7.579102 11.6 7.8 " transform="matrix(20,0,0,20,-211,-147)"/>
<path style="fill:none;stroke-width:0.1;stroke-linecap:butt;stroke-linejoin:miter;stroke:rgb(0%,0%,0%);stroke-opacity:1;stroke-miterlimit:10;" d="M 10.6 8.6 L 11.8 8.6 " transform="matrix(20,0,0,20,-211,-147)"/>
</g>
</svg>
